<mxfile host="app.diagrams.net" agent="Mozilla/5.0 (Windows NT 10.0; Win64; x64) AppleWebKit/537.36 (KHTML, like Gecko) Chrome/129.0.0.0 Safari/537.36" version="24.7.17">
  <diagram name="Page-1" id="q1ug2PjQbhuIJnZgXMJM">
    <mxGraphModel dx="2043" dy="1803" grid="1" gridSize="10" guides="1" tooltips="1" connect="1" arrows="1" fold="1" page="1" pageScale="1" pageWidth="827" pageHeight="1169" math="0" shadow="0">
      <root>
        <mxCell id="0" />
        <mxCell id="1" parent="0" />
        <mxCell id="-vC6kRw7X3EwEOCA9WEK-1" value="Mahasiswa" style="rounded=0;whiteSpace=wrap;html=1;" vertex="1" parent="1">
          <mxGeometry x="-340" y="120" width="120" height="60" as="geometry" />
        </mxCell>
        <mxCell id="-vC6kRw7X3EwEOCA9WEK-2" value="Dosen" style="rounded=0;whiteSpace=wrap;html=1;" vertex="1" parent="1">
          <mxGeometry x="-460" y="745" width="120" height="60" as="geometry" />
        </mxCell>
        <mxCell id="-vC6kRw7X3EwEOCA9WEK-3" value="MataKuliah" style="rounded=0;whiteSpace=wrap;html=1;" vertex="1" parent="1">
          <mxGeometry x="280" y="40" width="120" height="60" as="geometry" />
        </mxCell>
        <mxCell id="-vC6kRw7X3EwEOCA9WEK-4" value="Nilai" style="rounded=0;whiteSpace=wrap;html=1;" vertex="1" parent="1">
          <mxGeometry x="-530" y="390" width="120" height="60" as="geometry" />
        </mxCell>
        <mxCell id="-vC6kRw7X3EwEOCA9WEK-5" value="Jurusan" style="rounded=0;whiteSpace=wrap;html=1;" vertex="1" parent="1">
          <mxGeometry x="-573" y="-160" width="120" height="60" as="geometry" />
        </mxCell>
        <mxCell id="-vC6kRw7X3EwEOCA9WEK-6" value="Absensi" style="rounded=0;whiteSpace=wrap;html=1;" vertex="1" parent="1">
          <mxGeometry x="76" y="675" width="120" height="60" as="geometry" />
        </mxCell>
        <mxCell id="-vC6kRw7X3EwEOCA9WEK-7" value="Ruang_Kelas" style="rounded=0;whiteSpace=wrap;html=1;" vertex="1" parent="1">
          <mxGeometry x="550" y="690" width="120" height="60" as="geometry" />
        </mxCell>
        <mxCell id="-vC6kRw7X3EwEOCA9WEK-8" value="Jadwal" style="rounded=0;whiteSpace=wrap;html=1;" vertex="1" parent="1">
          <mxGeometry x="540" y="440" width="120" height="60" as="geometry" />
        </mxCell>
        <mxCell id="-vC6kRw7X3EwEOCA9WEK-9" value="Fakultas" style="rounded=0;whiteSpace=wrap;html=1;" vertex="1" parent="1">
          <mxGeometry x="-125" y="-210" width="120" height="60" as="geometry" />
        </mxCell>
        <mxCell id="-vC6kRw7X3EwEOCA9WEK-10" value="&lt;u&gt;ID_Mahasiswa&lt;/u&gt;" style="ellipse;whiteSpace=wrap;html=1;" vertex="1" parent="1">
          <mxGeometry x="-280" y="10" width="120" height="80" as="geometry" />
        </mxCell>
        <mxCell id="-vC6kRw7X3EwEOCA9WEK-11" value="Nama_Mahasiswa" style="ellipse;whiteSpace=wrap;html=1;" vertex="1" parent="1">
          <mxGeometry x="-430" y="20" width="120" height="80" as="geometry" />
        </mxCell>
        <mxCell id="-vC6kRw7X3EwEOCA9WEK-12" value="Email" style="ellipse;whiteSpace=wrap;html=1;" vertex="1" parent="1">
          <mxGeometry x="-150" y="60" width="120" height="80" as="geometry" />
        </mxCell>
        <mxCell id="-vC6kRw7X3EwEOCA9WEK-13" value="Nama_Jurusan" style="ellipse;whiteSpace=wrap;html=1;" vertex="1" parent="1">
          <mxGeometry x="-160" y="150" width="120" height="80" as="geometry" />
        </mxCell>
        <mxCell id="-vC6kRw7X3EwEOCA9WEK-14" value="Nama_Fakultas" style="ellipse;whiteSpace=wrap;html=1;" vertex="1" parent="1">
          <mxGeometry x="-440" y="200" width="120" height="80" as="geometry" />
        </mxCell>
        <mxCell id="-vC6kRw7X3EwEOCA9WEK-16" value="&lt;u&gt;ID_Dosen&lt;/u&gt;" style="ellipse;whiteSpace=wrap;html=1;" vertex="1" parent="1">
          <mxGeometry x="-570" y="635" width="120" height="80" as="geometry" />
        </mxCell>
        <mxCell id="-vC6kRw7X3EwEOCA9WEK-17" value="Nama_Dosen" style="ellipse;whiteSpace=wrap;html=1;" vertex="1" parent="1">
          <mxGeometry x="-400" y="625" width="120" height="80" as="geometry" />
        </mxCell>
        <mxCell id="-vC6kRw7X3EwEOCA9WEK-19" value="Email" style="ellipse;whiteSpace=wrap;html=1;" vertex="1" parent="1">
          <mxGeometry x="-300" y="735" width="120" height="80" as="geometry" />
        </mxCell>
        <mxCell id="-vC6kRw7X3EwEOCA9WEK-20" value="Departemen" style="ellipse;whiteSpace=wrap;html=1;" vertex="1" parent="1">
          <mxGeometry x="-630" y="735" width="120" height="80" as="geometry" />
        </mxCell>
        <mxCell id="-vC6kRw7X3EwEOCA9WEK-21" value="&lt;u&gt;ID_Matkul&lt;/u&gt;" style="ellipse;whiteSpace=wrap;html=1;" vertex="1" parent="1">
          <mxGeometry x="430" y="-40" width="120" height="80" as="geometry" />
        </mxCell>
        <mxCell id="-vC6kRw7X3EwEOCA9WEK-22" value="Nama_Matkul" style="ellipse;whiteSpace=wrap;html=1;" vertex="1" parent="1">
          <mxGeometry x="460" y="50" width="120" height="80" as="geometry" />
        </mxCell>
        <mxCell id="-vC6kRw7X3EwEOCA9WEK-23" value="SKS" style="ellipse;whiteSpace=wrap;html=1;" vertex="1" parent="1">
          <mxGeometry x="294" y="-80" width="120" height="80" as="geometry" />
        </mxCell>
        <mxCell id="-vC6kRw7X3EwEOCA9WEK-24" value="Semester" style="ellipse;whiteSpace=wrap;html=1;" vertex="1" parent="1">
          <mxGeometry x="130" y="30" width="120" height="80" as="geometry" />
        </mxCell>
        <mxCell id="-vC6kRw7X3EwEOCA9WEK-25" value="&lt;u&gt;ID_RuangKelas&lt;/u&gt;" style="ellipse;whiteSpace=wrap;html=1;" vertex="1" parent="1">
          <mxGeometry x="460" y="780" width="120" height="80" as="geometry" />
        </mxCell>
        <mxCell id="-vC6kRw7X3EwEOCA9WEK-26" value="Nama_Ruang" style="ellipse;whiteSpace=wrap;html=1;" vertex="1" parent="1">
          <mxGeometry x="640" y="780" width="120" height="80" as="geometry" />
        </mxCell>
        <mxCell id="-vC6kRw7X3EwEOCA9WEK-29" value="Kelas" style="ellipse;whiteSpace=wrap;html=1;" vertex="1" parent="1">
          <mxGeometry x="-520" y="110" width="120" height="80" as="geometry" />
        </mxCell>
        <mxCell id="-vC6kRw7X3EwEOCA9WEK-30" value="ID_Jadwal" style="ellipse;whiteSpace=wrap;html=1;" vertex="1" parent="1">
          <mxGeometry x="390" y="390" width="120" height="80" as="geometry" />
        </mxCell>
        <mxCell id="-vC6kRw7X3EwEOCA9WEK-31" value="Tanggal" style="ellipse;whiteSpace=wrap;html=1;" vertex="1" parent="1">
          <mxGeometry x="410" y="500" width="120" height="80" as="geometry" />
        </mxCell>
        <mxCell id="-vC6kRw7X3EwEOCA9WEK-32" value="Jam_Mulai" style="ellipse;whiteSpace=wrap;html=1;" vertex="1" parent="1">
          <mxGeometry x="540" y="540" width="120" height="80" as="geometry" />
        </mxCell>
        <mxCell id="-vC6kRw7X3EwEOCA9WEK-33" value="Jam_Selesai" style="ellipse;whiteSpace=wrap;html=1;" vertex="1" parent="1">
          <mxGeometry x="670" y="500" width="120" height="80" as="geometry" />
        </mxCell>
        <mxCell id="-vC6kRw7X3EwEOCA9WEK-34" value="Nama_Ruang" style="ellipse;whiteSpace=wrap;html=1;" vertex="1" parent="1">
          <mxGeometry x="690" y="390" width="120" height="80" as="geometry" />
        </mxCell>
        <mxCell id="-vC6kRw7X3EwEOCA9WEK-35" value="ID_Nilai" style="ellipse;whiteSpace=wrap;html=1;" vertex="1" parent="1">
          <mxGeometry x="-680" y="380" width="120" height="80" as="geometry" />
        </mxCell>
        <mxCell id="-vC6kRw7X3EwEOCA9WEK-36" value="ID_Mahasiswa" style="ellipse;whiteSpace=wrap;html=1;" vertex="1" parent="1">
          <mxGeometry x="-630" y="480" width="120" height="80" as="geometry" />
        </mxCell>
        <mxCell id="-vC6kRw7X3EwEOCA9WEK-37" value="Kelas" style="ellipse;whiteSpace=wrap;html=1;" vertex="1" parent="1">
          <mxGeometry x="-440" y="480" width="120" height="80" as="geometry" />
        </mxCell>
        <mxCell id="-vC6kRw7X3EwEOCA9WEK-38" value="Nilai" style="ellipse;whiteSpace=wrap;html=1;" vertex="1" parent="1">
          <mxGeometry x="-380" y="380" width="120" height="80" as="geometry" />
        </mxCell>
        <mxCell id="-vC6kRw7X3EwEOCA9WEK-39" value="&lt;u&gt;ID_Absensi&lt;/u&gt;" style="ellipse;whiteSpace=wrap;html=1;" vertex="1" parent="1">
          <mxGeometry x="-4" y="755" width="120" height="80" as="geometry" />
        </mxCell>
        <mxCell id="-vC6kRw7X3EwEOCA9WEK-40" value="ID_Mahasiswa" style="ellipse;whiteSpace=wrap;html=1;" vertex="1" parent="1">
          <mxGeometry x="156" y="755" width="120" height="80" as="geometry" />
        </mxCell>
        <mxCell id="-vC6kRw7X3EwEOCA9WEK-41" value="Kehadiran" style="ellipse;whiteSpace=wrap;html=1;" vertex="1" parent="1">
          <mxGeometry x="-90" y="665" width="120" height="80" as="geometry" />
        </mxCell>
        <mxCell id="-vC6kRw7X3EwEOCA9WEK-42" value="Tanggal" style="ellipse;whiteSpace=wrap;html=1;" vertex="1" parent="1">
          <mxGeometry x="246" y="665" width="120" height="80" as="geometry" />
        </mxCell>
        <mxCell id="-vC6kRw7X3EwEOCA9WEK-44" value="&lt;u&gt;ID_Fakultas&lt;/u&gt;" style="ellipse;whiteSpace=wrap;html=1;" vertex="1" parent="1">
          <mxGeometry x="-225" y="-130" width="120" height="80" as="geometry" />
        </mxCell>
        <mxCell id="-vC6kRw7X3EwEOCA9WEK-45" value="Nama_Fakultas" style="ellipse;whiteSpace=wrap;html=1;" vertex="1" parent="1">
          <mxGeometry x="-15" y="-130" width="120" height="80" as="geometry" />
        </mxCell>
        <mxCell id="-vC6kRw7X3EwEOCA9WEK-46" value="&lt;u&gt;ID_Jurusan&lt;/u&gt;" style="ellipse;whiteSpace=wrap;html=1;" vertex="1" parent="1">
          <mxGeometry x="-700" y="-120" width="120" height="80" as="geometry" />
        </mxCell>
        <mxCell id="-vC6kRw7X3EwEOCA9WEK-47" value="Nama_Jurusan" style="ellipse;whiteSpace=wrap;html=1;" vertex="1" parent="1">
          <mxGeometry x="-420" y="-160" width="120" height="80" as="geometry" />
        </mxCell>
        <mxCell id="-vC6kRw7X3EwEOCA9WEK-48" value="" style="endArrow=none;html=1;rounded=0;entryX=1;entryY=1;entryDx=0;entryDy=0;exitX=0.25;exitY=0;exitDx=0;exitDy=0;" edge="1" parent="1" source="-vC6kRw7X3EwEOCA9WEK-1" target="-vC6kRw7X3EwEOCA9WEK-11">
          <mxGeometry width="50" height="50" relative="1" as="geometry">
            <mxPoint x="-370" y="210" as="sourcePoint" />
            <mxPoint x="-320" y="160" as="targetPoint" />
          </mxGeometry>
        </mxCell>
        <mxCell id="-vC6kRw7X3EwEOCA9WEK-49" value="" style="endArrow=none;html=1;rounded=0;entryX=0;entryY=1;entryDx=0;entryDy=0;exitX=0.75;exitY=0;exitDx=0;exitDy=0;" edge="1" parent="1" source="-vC6kRw7X3EwEOCA9WEK-1" target="-vC6kRw7X3EwEOCA9WEK-10">
          <mxGeometry width="50" height="50" relative="1" as="geometry">
            <mxPoint x="-370" y="210" as="sourcePoint" />
            <mxPoint x="-320" y="160" as="targetPoint" />
          </mxGeometry>
        </mxCell>
        <mxCell id="-vC6kRw7X3EwEOCA9WEK-50" value="" style="endArrow=none;html=1;rounded=0;entryX=0;entryY=0.5;entryDx=0;entryDy=0;exitX=1;exitY=0.5;exitDx=0;exitDy=0;" edge="1" parent="1" source="-vC6kRw7X3EwEOCA9WEK-1" target="-vC6kRw7X3EwEOCA9WEK-12">
          <mxGeometry width="50" height="50" relative="1" as="geometry">
            <mxPoint x="-370" y="210" as="sourcePoint" />
            <mxPoint x="-320" y="160" as="targetPoint" />
          </mxGeometry>
        </mxCell>
        <mxCell id="-vC6kRw7X3EwEOCA9WEK-51" value="" style="endArrow=none;html=1;rounded=0;entryX=0;entryY=0.5;entryDx=0;entryDy=0;exitX=1;exitY=0.5;exitDx=0;exitDy=0;" edge="1" parent="1" source="-vC6kRw7X3EwEOCA9WEK-29" target="-vC6kRw7X3EwEOCA9WEK-1">
          <mxGeometry width="50" height="50" relative="1" as="geometry">
            <mxPoint x="-370" y="210" as="sourcePoint" />
            <mxPoint x="-320" y="160" as="targetPoint" />
          </mxGeometry>
        </mxCell>
        <mxCell id="-vC6kRw7X3EwEOCA9WEK-52" value="" style="endArrow=none;html=1;rounded=0;exitX=0.5;exitY=0;exitDx=0;exitDy=0;" edge="1" parent="1" source="-vC6kRw7X3EwEOCA9WEK-14">
          <mxGeometry width="50" height="50" relative="1" as="geometry">
            <mxPoint x="-370" y="210" as="sourcePoint" />
            <mxPoint x="-340" y="180" as="targetPoint" />
          </mxGeometry>
        </mxCell>
        <mxCell id="-vC6kRw7X3EwEOCA9WEK-53" value="" style="endArrow=none;html=1;rounded=0;entryX=1;entryY=1;entryDx=0;entryDy=0;exitX=0;exitY=0.5;exitDx=0;exitDy=0;" edge="1" parent="1" source="-vC6kRw7X3EwEOCA9WEK-13" target="-vC6kRw7X3EwEOCA9WEK-1">
          <mxGeometry width="50" height="50" relative="1" as="geometry">
            <mxPoint x="-370" y="210" as="sourcePoint" />
            <mxPoint x="-320" y="160" as="targetPoint" />
          </mxGeometry>
        </mxCell>
        <mxCell id="-vC6kRw7X3EwEOCA9WEK-54" value="" style="endArrow=none;html=1;rounded=0;entryX=1;entryY=1;entryDx=0;entryDy=0;exitX=0.25;exitY=0;exitDx=0;exitDy=0;" edge="1" parent="1" source="-vC6kRw7X3EwEOCA9WEK-2" target="-vC6kRw7X3EwEOCA9WEK-16">
          <mxGeometry width="50" height="50" relative="1" as="geometry">
            <mxPoint x="-540" y="875" as="sourcePoint" />
            <mxPoint x="-490" y="825" as="targetPoint" />
          </mxGeometry>
        </mxCell>
        <mxCell id="-vC6kRw7X3EwEOCA9WEK-55" value="" style="endArrow=none;html=1;rounded=0;entryX=0.5;entryY=1;entryDx=0;entryDy=0;exitX=0.75;exitY=0;exitDx=0;exitDy=0;" edge="1" parent="1" source="-vC6kRw7X3EwEOCA9WEK-2" target="-vC6kRw7X3EwEOCA9WEK-17">
          <mxGeometry width="50" height="50" relative="1" as="geometry">
            <mxPoint x="-540" y="875" as="sourcePoint" />
            <mxPoint x="-490" y="825" as="targetPoint" />
          </mxGeometry>
        </mxCell>
        <mxCell id="-vC6kRw7X3EwEOCA9WEK-56" value="" style="endArrow=none;html=1;rounded=0;entryX=0;entryY=0.5;entryDx=0;entryDy=0;exitX=1;exitY=0.5;exitDx=0;exitDy=0;" edge="1" parent="1" source="-vC6kRw7X3EwEOCA9WEK-2" target="-vC6kRw7X3EwEOCA9WEK-19">
          <mxGeometry width="50" height="50" relative="1" as="geometry">
            <mxPoint x="-540" y="875" as="sourcePoint" />
            <mxPoint x="-490" y="825" as="targetPoint" />
          </mxGeometry>
        </mxCell>
        <mxCell id="-vC6kRw7X3EwEOCA9WEK-57" value="" style="endArrow=none;html=1;rounded=0;entryX=0;entryY=0.5;entryDx=0;entryDy=0;exitX=1;exitY=0.5;exitDx=0;exitDy=0;" edge="1" parent="1" source="-vC6kRw7X3EwEOCA9WEK-20" target="-vC6kRw7X3EwEOCA9WEK-2">
          <mxGeometry width="50" height="50" relative="1" as="geometry">
            <mxPoint x="-630" y="865" as="sourcePoint" />
            <mxPoint x="-580" y="815" as="targetPoint" />
          </mxGeometry>
        </mxCell>
        <mxCell id="-vC6kRw7X3EwEOCA9WEK-58" value="" style="endArrow=none;html=1;rounded=0;entryX=0;entryY=0.5;entryDx=0;entryDy=0;exitX=1;exitY=0.5;exitDx=0;exitDy=0;" edge="1" parent="1" source="-vC6kRw7X3EwEOCA9WEK-3" target="-vC6kRw7X3EwEOCA9WEK-21">
          <mxGeometry width="50" height="50" relative="1" as="geometry">
            <mxPoint x="390" y="90" as="sourcePoint" />
            <mxPoint x="440" y="40" as="targetPoint" />
          </mxGeometry>
        </mxCell>
        <mxCell id="-vC6kRw7X3EwEOCA9WEK-59" value="" style="endArrow=none;html=1;rounded=0;exitX=1;exitY=0.5;exitDx=0;exitDy=0;entryX=0;entryY=0.5;entryDx=0;entryDy=0;" edge="1" parent="1" source="-vC6kRw7X3EwEOCA9WEK-24" target="-vC6kRw7X3EwEOCA9WEK-3">
          <mxGeometry width="50" height="50" relative="1" as="geometry">
            <mxPoint x="390" y="90" as="sourcePoint" />
            <mxPoint x="440" y="40" as="targetPoint" />
          </mxGeometry>
        </mxCell>
        <mxCell id="-vC6kRw7X3EwEOCA9WEK-60" value="" style="endArrow=none;html=1;rounded=0;exitX=1;exitY=1;exitDx=0;exitDy=0;" edge="1" parent="1" source="-vC6kRw7X3EwEOCA9WEK-3">
          <mxGeometry width="50" height="50" relative="1" as="geometry">
            <mxPoint x="390" y="90" as="sourcePoint" />
            <mxPoint x="460" y="90" as="targetPoint" />
          </mxGeometry>
        </mxCell>
        <mxCell id="-vC6kRw7X3EwEOCA9WEK-61" value="" style="endArrow=none;html=1;rounded=0;exitX=0.5;exitY=1;exitDx=0;exitDy=0;entryX=0.466;entryY=-0.031;entryDx=0;entryDy=0;entryPerimeter=0;" edge="1" parent="1" source="-vC6kRw7X3EwEOCA9WEK-23" target="-vC6kRw7X3EwEOCA9WEK-3">
          <mxGeometry width="50" height="50" relative="1" as="geometry">
            <mxPoint x="390" y="90" as="sourcePoint" />
            <mxPoint x="440" y="40" as="targetPoint" />
          </mxGeometry>
        </mxCell>
        <mxCell id="-vC6kRw7X3EwEOCA9WEK-62" value="" style="endArrow=none;html=1;rounded=0;entryX=0.75;entryY=1;entryDx=0;entryDy=0;exitX=0;exitY=0;exitDx=0;exitDy=0;" edge="1" parent="1" source="-vC6kRw7X3EwEOCA9WEK-26" target="-vC6kRw7X3EwEOCA9WEK-7">
          <mxGeometry width="50" height="50" relative="1" as="geometry">
            <mxPoint x="700" y="840" as="sourcePoint" />
            <mxPoint x="750" y="790" as="targetPoint" />
          </mxGeometry>
        </mxCell>
        <mxCell id="-vC6kRw7X3EwEOCA9WEK-63" value="" style="endArrow=none;html=1;rounded=0;entryX=0.25;entryY=1;entryDx=0;entryDy=0;exitX=1;exitY=0;exitDx=0;exitDy=0;" edge="1" parent="1" source="-vC6kRw7X3EwEOCA9WEK-25" target="-vC6kRw7X3EwEOCA9WEK-7">
          <mxGeometry width="50" height="50" relative="1" as="geometry">
            <mxPoint x="700" y="840" as="sourcePoint" />
            <mxPoint x="750" y="790" as="targetPoint" />
          </mxGeometry>
        </mxCell>
        <mxCell id="-vC6kRw7X3EwEOCA9WEK-64" value="" style="endArrow=none;html=1;rounded=0;entryX=0;entryY=0.5;entryDx=0;entryDy=0;exitX=1;exitY=0.25;exitDx=0;exitDy=0;" edge="1" parent="1" source="-vC6kRw7X3EwEOCA9WEK-8" target="-vC6kRw7X3EwEOCA9WEK-34">
          <mxGeometry width="50" height="50" relative="1" as="geometry">
            <mxPoint x="650" y="570" as="sourcePoint" />
            <mxPoint x="700" y="520" as="targetPoint" />
          </mxGeometry>
        </mxCell>
        <mxCell id="-vC6kRw7X3EwEOCA9WEK-65" value="" style="endArrow=none;html=1;rounded=0;entryX=1;entryY=0.5;entryDx=0;entryDy=0;exitX=-0.01;exitY=0.337;exitDx=0;exitDy=0;exitPerimeter=0;" edge="1" parent="1" source="-vC6kRw7X3EwEOCA9WEK-8" target="-vC6kRw7X3EwEOCA9WEK-30">
          <mxGeometry width="50" height="50" relative="1" as="geometry">
            <mxPoint x="650" y="570" as="sourcePoint" />
            <mxPoint x="700" y="520" as="targetPoint" />
          </mxGeometry>
        </mxCell>
        <mxCell id="-vC6kRw7X3EwEOCA9WEK-66" value="" style="endArrow=none;html=1;rounded=0;exitX=1;exitY=0.5;exitDx=0;exitDy=0;entryX=0.25;entryY=1;entryDx=0;entryDy=0;" edge="1" parent="1" source="-vC6kRw7X3EwEOCA9WEK-31" target="-vC6kRw7X3EwEOCA9WEK-8">
          <mxGeometry width="50" height="50" relative="1" as="geometry">
            <mxPoint x="650" y="570" as="sourcePoint" />
            <mxPoint x="700" y="520" as="targetPoint" />
          </mxGeometry>
        </mxCell>
        <mxCell id="-vC6kRw7X3EwEOCA9WEK-67" value="" style="endArrow=none;html=1;rounded=0;exitX=0.5;exitY=0;exitDx=0;exitDy=0;entryX=0.5;entryY=1;entryDx=0;entryDy=0;" edge="1" parent="1" source="-vC6kRw7X3EwEOCA9WEK-32" target="-vC6kRw7X3EwEOCA9WEK-8">
          <mxGeometry width="50" height="50" relative="1" as="geometry">
            <mxPoint x="650" y="570" as="sourcePoint" />
            <mxPoint x="700" y="520" as="targetPoint" />
          </mxGeometry>
        </mxCell>
        <mxCell id="-vC6kRw7X3EwEOCA9WEK-68" value="" style="endArrow=none;html=1;rounded=0;entryX=0.75;entryY=1;entryDx=0;entryDy=0;exitX=0;exitY=0.5;exitDx=0;exitDy=0;" edge="1" parent="1" source="-vC6kRw7X3EwEOCA9WEK-33" target="-vC6kRw7X3EwEOCA9WEK-8">
          <mxGeometry width="50" height="50" relative="1" as="geometry">
            <mxPoint x="650" y="570" as="sourcePoint" />
            <mxPoint x="700" y="520" as="targetPoint" />
          </mxGeometry>
        </mxCell>
        <mxCell id="-vC6kRw7X3EwEOCA9WEK-69" value="" style="endArrow=none;html=1;rounded=0;entryX=0;entryY=0.5;entryDx=0;entryDy=0;exitX=1;exitY=0.5;exitDx=0;exitDy=0;" edge="1" parent="1" source="-vC6kRw7X3EwEOCA9WEK-4" target="-vC6kRw7X3EwEOCA9WEK-38">
          <mxGeometry width="50" height="50" relative="1" as="geometry">
            <mxPoint x="-400" y="500" as="sourcePoint" />
            <mxPoint x="-350" y="450" as="targetPoint" />
          </mxGeometry>
        </mxCell>
        <mxCell id="-vC6kRw7X3EwEOCA9WEK-70" value="" style="endArrow=none;html=1;rounded=0;exitX=1;exitY=0.5;exitDx=0;exitDy=0;" edge="1" parent="1" source="-vC6kRw7X3EwEOCA9WEK-35">
          <mxGeometry width="50" height="50" relative="1" as="geometry">
            <mxPoint x="-400" y="500" as="sourcePoint" />
            <mxPoint x="-530" y="420" as="targetPoint" />
          </mxGeometry>
        </mxCell>
        <mxCell id="-vC6kRw7X3EwEOCA9WEK-71" value="" style="endArrow=none;html=1;rounded=0;exitX=1;exitY=0;exitDx=0;exitDy=0;entryX=0.25;entryY=1;entryDx=0;entryDy=0;" edge="1" parent="1" source="-vC6kRw7X3EwEOCA9WEK-36" target="-vC6kRw7X3EwEOCA9WEK-4">
          <mxGeometry width="50" height="50" relative="1" as="geometry">
            <mxPoint x="-400" y="500" as="sourcePoint" />
            <mxPoint x="-350" y="450" as="targetPoint" />
          </mxGeometry>
        </mxCell>
        <mxCell id="-vC6kRw7X3EwEOCA9WEK-72" value="" style="endArrow=none;html=1;rounded=0;entryX=0.75;entryY=1;entryDx=0;entryDy=0;exitX=0;exitY=0;exitDx=0;exitDy=0;" edge="1" parent="1" source="-vC6kRw7X3EwEOCA9WEK-37" target="-vC6kRw7X3EwEOCA9WEK-4">
          <mxGeometry width="50" height="50" relative="1" as="geometry">
            <mxPoint x="-400" y="500" as="sourcePoint" />
            <mxPoint x="-350" y="450" as="targetPoint" />
          </mxGeometry>
        </mxCell>
        <mxCell id="-vC6kRw7X3EwEOCA9WEK-73" value="" style="endArrow=none;html=1;rounded=0;entryX=0;entryY=0.5;entryDx=0;entryDy=0;exitX=1;exitY=0.5;exitDx=0;exitDy=0;" edge="1" parent="1" source="-vC6kRw7X3EwEOCA9WEK-41" target="-vC6kRw7X3EwEOCA9WEK-6">
          <mxGeometry width="50" height="50" relative="1" as="geometry">
            <mxPoint x="6" y="745" as="sourcePoint" />
            <mxPoint x="56" y="695" as="targetPoint" />
          </mxGeometry>
        </mxCell>
        <mxCell id="-vC6kRw7X3EwEOCA9WEK-74" value="" style="endArrow=none;html=1;rounded=0;entryX=0;entryY=0.5;entryDx=0;entryDy=0;exitX=1;exitY=0.5;exitDx=0;exitDy=0;" edge="1" parent="1" source="-vC6kRw7X3EwEOCA9WEK-6" target="-vC6kRw7X3EwEOCA9WEK-42">
          <mxGeometry width="50" height="50" relative="1" as="geometry">
            <mxPoint x="186" y="725" as="sourcePoint" />
            <mxPoint x="236" y="675" as="targetPoint" />
          </mxGeometry>
        </mxCell>
        <mxCell id="-vC6kRw7X3EwEOCA9WEK-75" value="" style="endArrow=none;html=1;rounded=0;entryX=0.25;entryY=1;entryDx=0;entryDy=0;exitX=1;exitY=0;exitDx=0;exitDy=0;" edge="1" parent="1" source="-vC6kRw7X3EwEOCA9WEK-39" target="-vC6kRw7X3EwEOCA9WEK-6">
          <mxGeometry width="50" height="50" relative="1" as="geometry">
            <mxPoint x="186" y="845" as="sourcePoint" />
            <mxPoint x="236" y="795" as="targetPoint" />
          </mxGeometry>
        </mxCell>
        <mxCell id="-vC6kRw7X3EwEOCA9WEK-76" value="" style="endArrow=none;html=1;rounded=0;entryX=0.75;entryY=1;entryDx=0;entryDy=0;exitX=0;exitY=0;exitDx=0;exitDy=0;" edge="1" parent="1" source="-vC6kRw7X3EwEOCA9WEK-40" target="-vC6kRw7X3EwEOCA9WEK-6">
          <mxGeometry width="50" height="50" relative="1" as="geometry">
            <mxPoint x="186" y="845" as="sourcePoint" />
            <mxPoint x="236" y="795" as="targetPoint" />
          </mxGeometry>
        </mxCell>
        <mxCell id="-vC6kRw7X3EwEOCA9WEK-77" value="" style="endArrow=none;html=1;rounded=0;exitX=1;exitY=0;exitDx=0;exitDy=0;entryX=0.25;entryY=1;entryDx=0;entryDy=0;" edge="1" parent="1" source="-vC6kRw7X3EwEOCA9WEK-44" target="-vC6kRw7X3EwEOCA9WEK-9">
          <mxGeometry width="50" height="50" relative="1" as="geometry">
            <mxPoint x="-55" y="-120" as="sourcePoint" />
            <mxPoint x="-5" y="-170" as="targetPoint" />
          </mxGeometry>
        </mxCell>
        <mxCell id="-vC6kRw7X3EwEOCA9WEK-78" value="" style="endArrow=none;html=1;rounded=0;exitX=0;exitY=0;exitDx=0;exitDy=0;entryX=0.75;entryY=1;entryDx=0;entryDy=0;" edge="1" parent="1" source="-vC6kRw7X3EwEOCA9WEK-45" target="-vC6kRw7X3EwEOCA9WEK-9">
          <mxGeometry width="50" height="50" relative="1" as="geometry">
            <mxPoint x="-55" y="-120" as="sourcePoint" />
            <mxPoint x="-5" y="-170" as="targetPoint" />
          </mxGeometry>
        </mxCell>
        <mxCell id="-vC6kRw7X3EwEOCA9WEK-79" value="" style="endArrow=none;html=1;rounded=0;entryX=0;entryY=0.5;entryDx=0;entryDy=0;exitX=1;exitY=0;exitDx=0;exitDy=0;" edge="1" parent="1" source="-vC6kRw7X3EwEOCA9WEK-46" target="-vC6kRw7X3EwEOCA9WEK-5">
          <mxGeometry width="50" height="50" relative="1" as="geometry">
            <mxPoint x="-660" y="50" as="sourcePoint" />
            <mxPoint x="-610" as="targetPoint" />
          </mxGeometry>
        </mxCell>
        <mxCell id="-vC6kRw7X3EwEOCA9WEK-80" value="" style="endArrow=none;html=1;rounded=0;entryX=0;entryY=0.5;entryDx=0;entryDy=0;exitX=1;exitY=0.25;exitDx=0;exitDy=0;" edge="1" parent="1" source="-vC6kRw7X3EwEOCA9WEK-5" target="-vC6kRw7X3EwEOCA9WEK-47">
          <mxGeometry width="50" height="50" relative="1" as="geometry">
            <mxPoint x="-460" y="-100" as="sourcePoint" />
            <mxPoint x="-410" y="-150" as="targetPoint" />
          </mxGeometry>
        </mxCell>
        <mxCell id="-vC6kRw7X3EwEOCA9WEK-81" value="ID_Mahasiswa" style="ellipse;whiteSpace=wrap;html=1;" vertex="1" parent="1">
          <mxGeometry x="540" y="320" width="120" height="80" as="geometry" />
        </mxCell>
        <mxCell id="-vC6kRw7X3EwEOCA9WEK-82" value="" style="endArrow=none;html=1;rounded=0;exitX=0.5;exitY=0;exitDx=0;exitDy=0;" edge="1" parent="1" source="-vC6kRw7X3EwEOCA9WEK-8">
          <mxGeometry width="50" height="50" relative="1" as="geometry">
            <mxPoint x="760" y="510" as="sourcePoint" />
            <mxPoint x="600" y="400" as="targetPoint" />
          </mxGeometry>
        </mxCell>
        <mxCell id="-vC6kRw7X3EwEOCA9WEK-83" value="ID_Dosen" style="ellipse;whiteSpace=wrap;html=1;" vertex="1" parent="1">
          <mxGeometry x="-610" y="290" width="120" height="80" as="geometry" />
        </mxCell>
        <mxCell id="-vC6kRw7X3EwEOCA9WEK-84" value="" style="endArrow=none;html=1;rounded=0;exitX=1;exitY=1;exitDx=0;exitDy=0;entryX=0.25;entryY=0;entryDx=0;entryDy=0;" edge="1" parent="1" source="-vC6kRw7X3EwEOCA9WEK-83" target="-vC6kRw7X3EwEOCA9WEK-4">
          <mxGeometry width="50" height="50" relative="1" as="geometry">
            <mxPoint x="-420" y="370" as="sourcePoint" />
            <mxPoint x="-370" y="320" as="targetPoint" />
          </mxGeometry>
        </mxCell>
        <mxCell id="-vC6kRw7X3EwEOCA9WEK-85" value="KRS" style="rounded=0;whiteSpace=wrap;html=1;" vertex="1" parent="1">
          <mxGeometry x="20" y="425" width="120" height="60" as="geometry" />
        </mxCell>
        <mxCell id="-vC6kRw7X3EwEOCA9WEK-86" value="ID_Mahasiswa" style="ellipse;whiteSpace=wrap;html=1;" vertex="1" parent="1">
          <mxGeometry x="170" y="415" width="120" height="80" as="geometry" />
        </mxCell>
        <mxCell id="-vC6kRw7X3EwEOCA9WEK-87" value="ID_KRS" style="ellipse;whiteSpace=wrap;html=1;" vertex="1" parent="1">
          <mxGeometry x="-120" y="375" width="120" height="80" as="geometry" />
        </mxCell>
        <mxCell id="-vC6kRw7X3EwEOCA9WEK-88" value="ID_Matkul" style="ellipse;whiteSpace=wrap;html=1;" vertex="1" parent="1">
          <mxGeometry x="-110" y="485" width="120" height="80" as="geometry" />
        </mxCell>
        <mxCell id="-vC6kRw7X3EwEOCA9WEK-89" value="" style="endArrow=none;html=1;rounded=0;entryX=1;entryY=0.5;entryDx=0;entryDy=0;exitX=0;exitY=0;exitDx=0;exitDy=0;" edge="1" parent="1" source="-vC6kRw7X3EwEOCA9WEK-85" target="-vC6kRw7X3EwEOCA9WEK-87">
          <mxGeometry width="50" height="50" relative="1" as="geometry">
            <mxPoint x="50" y="505" as="sourcePoint" />
            <mxPoint x="100" y="455" as="targetPoint" />
          </mxGeometry>
        </mxCell>
        <mxCell id="-vC6kRw7X3EwEOCA9WEK-90" value="" style="endArrow=none;html=1;rounded=0;exitX=1;exitY=0;exitDx=0;exitDy=0;" edge="1" parent="1" source="-vC6kRw7X3EwEOCA9WEK-88">
          <mxGeometry width="50" height="50" relative="1" as="geometry">
            <mxPoint x="50" y="505" as="sourcePoint" />
            <mxPoint x="20" y="485" as="targetPoint" />
          </mxGeometry>
        </mxCell>
        <mxCell id="-vC6kRw7X3EwEOCA9WEK-91" value="" style="endArrow=none;html=1;rounded=0;entryX=0;entryY=0.5;entryDx=0;entryDy=0;exitX=1;exitY=0.5;exitDx=0;exitDy=0;" edge="1" parent="1" source="-vC6kRw7X3EwEOCA9WEK-85" target="-vC6kRw7X3EwEOCA9WEK-86">
          <mxGeometry width="50" height="50" relative="1" as="geometry">
            <mxPoint x="50" y="505" as="sourcePoint" />
            <mxPoint x="100" y="455" as="targetPoint" />
          </mxGeometry>
        </mxCell>
        <mxCell id="-vC6kRw7X3EwEOCA9WEK-92" value="" style="endArrow=none;html=1;rounded=0;entryX=0.5;entryY=1;entryDx=0;entryDy=0;exitX=0;exitY=0.5;exitDx=0;exitDy=0;" edge="1" parent="1" source="-vC6kRw7X3EwEOCA9WEK-94" target="-vC6kRw7X3EwEOCA9WEK-1">
          <mxGeometry width="50" height="50" relative="1" as="geometry">
            <mxPoint x="-70" y="300" as="sourcePoint" />
            <mxPoint x="-270" y="220" as="targetPoint" />
          </mxGeometry>
        </mxCell>
        <mxCell id="-vC6kRw7X3EwEOCA9WEK-94" value="Memiliki" style="rhombus;whiteSpace=wrap;html=1;rotation=45;" vertex="1" parent="1">
          <mxGeometry x="-80" y="270" width="80" height="80" as="geometry" />
        </mxCell>
        <mxCell id="-vC6kRw7X3EwEOCA9WEK-96" value="" style="endArrow=none;html=1;rounded=0;entryX=1;entryY=0.5;entryDx=0;entryDy=0;exitX=0.5;exitY=0;exitDx=0;exitDy=0;" edge="1" parent="1" source="-vC6kRw7X3EwEOCA9WEK-85" target="-vC6kRw7X3EwEOCA9WEK-94">
          <mxGeometry width="50" height="50" relative="1" as="geometry">
            <mxPoint x="100" y="430" as="sourcePoint" />
            <mxPoint x="150" y="380" as="targetPoint" />
          </mxGeometry>
        </mxCell>
        <mxCell id="-vC6kRw7X3EwEOCA9WEK-98" value="" style="endArrow=none;html=1;rounded=0;exitX=0.75;exitY=0;exitDx=0;exitDy=0;entryX=0.5;entryY=1;entryDx=0;entryDy=0;" edge="1" parent="1" source="-vC6kRw7X3EwEOCA9WEK-85" target="-vC6kRw7X3EwEOCA9WEK-99">
          <mxGeometry width="50" height="50" relative="1" as="geometry">
            <mxPoint x="100" y="420" as="sourcePoint" />
            <mxPoint x="150" y="370" as="targetPoint" />
          </mxGeometry>
        </mxCell>
        <mxCell id="-vC6kRw7X3EwEOCA9WEK-99" value="Memiliki" style="rhombus;whiteSpace=wrap;html=1;rotation=45;" vertex="1" parent="1">
          <mxGeometry x="196" y="260" width="80" height="80" as="geometry" />
        </mxCell>
        <mxCell id="-vC6kRw7X3EwEOCA9WEK-100" value="" style="endArrow=none;html=1;rounded=0;entryX=0.25;entryY=1;entryDx=0;entryDy=0;exitX=0.5;exitY=0;exitDx=0;exitDy=0;" edge="1" parent="1" source="-vC6kRw7X3EwEOCA9WEK-99" target="-vC6kRw7X3EwEOCA9WEK-3">
          <mxGeometry width="50" height="50" relative="1" as="geometry">
            <mxPoint x="240" y="340" as="sourcePoint" />
            <mxPoint x="290" y="290" as="targetPoint" />
          </mxGeometry>
        </mxCell>
      </root>
    </mxGraphModel>
  </diagram>
</mxfile>
